<svg width="1440" height="856" viewBox="0 0 1440 856" fill="none" xmlns="http://www.w3.org/2000/svg">
<g clip-path="url(#clip0_131_2728)">
<rect width="1440" height="856" fill="#282D6E"/>
<path d="M661.84 980.266C692.787 950.092 713.971 913.431 732.224 876.644C751.277 838.241 767.055 798.703 786.039 760.278C804.594 722.712 827.505 686.719 855.461 653.727C884.242 619.757 918.532 588.901 958.683 564.844C978.595 552.915 999.899 542.699 1022.3 534.685C1047.66 525.625 1074.35 519.093 1100.95 513.415C1157.22 501.389 1214.7 494.369 1271.94 486.836C1329.96 479.2 1387.97 470.734 1445.39 460.206C1500.65 450.079 1555.72 437.483 1607.76 418.274C1650.16 402.623 1690.04 382.339 1726.34 357.785C1762.63 333.231 1795.47 304.495 1825.92 274.402C1834.04 266.381 1842.01 258.248 1849.87 250.041C1850.29 249.603 1849.56 248.973 1849.14 249.411C1818.74 281.119 1786.71 311.827 1750.85 339.043C1716.37 365.213 1678.36 387.744 1637.28 405.5C1587.79 426.889 1534.63 441.212 1480.94 452.37C1423.49 464.313 1365.03 473.113 1306.71 481.254C1249.83 489.194 1192.61 495.51 1136.16 505.623C1084.32 514.912 1031.66 526.626 985.29 549.334C943.893 569.603 907.781 597.22 877.144 628.506C846.472 659.821 820.965 694.844 800.047 731.616C779.276 768.129 763.695 806.673 746.413 844.454C728.744 883.072 709.734 921.957 682.268 956.275C675.753 964.408 668.732 972.23 661.135 979.636C660.697 980.066 661.427 980.696 661.866 980.266H661.84Z" fill="#FDCE82"/>
<path d="M623.184 1285.77C614.18 1171.57 590.709 1055.18 600.241 942.919C604.692 890.479 617.357 841.048 637.266 795.801C656.62 751.808 681.925 712.103 710.461 676.041C768.242 603.023 838.728 544.85 912.065 492.592C954.395 462.433 997.53 433.386 1037.24 399.186C1057.23 381.977 1076.29 363.447 1093.79 343.105C1110.91 323.187 1125.86 301.391 1140.19 278.716C1190.49 199.155 1244.58 116.872 1256.85 12.934C1258.29 0.65747 1259.12 -11.783 1259.39 -24.3436C1259.41 -25.216 1258.2 -25.3482 1258.17 -24.4863C1255.9 84.7058 1205.67 172.317 1154.46 253.653C1140.25 276.206 1126.44 299.209 1110.55 320.19C1094.06 341.958 1075.78 361.848 1056.33 380.152C1017.63 416.569 974.546 446.717 931.719 476.951C857.696 529.216 785.643 584.995 725.165 655.996C667.002 724.275 619.014 807.252 603.433 906.016C586.217 1015.14 606.64 1131.36 618.2 1244.35C619.61 1258.12 620.889 1271.87 621.971 1285.63C622.047 1286.52 623.245 1286.65 623.184 1285.77Z" fill="white"/>
<path d="M-172.791 911.52C-101.93 826.526 -62.0538 723.037 3.08766 634.48C33.0824 593.707 68.7359 555.61 110.941 526.033C149.961 498.693 194.277 479.875 240.235 465.923C360.672 429.347 487.336 417.92 611.188 396.484C673.687 385.668 734.895 370.206 796.61 356.069C859.073 341.759 921.693 327.807 983.094 309.68C1036.54 293.895 1088.99 274.788 1138.96 250.643C1185.73 228.042 1231.45 201.129 1269.21 166.076C1277.97 157.946 1286.22 149.344 1293.83 140.235C1294.41 139.543 1293.38 138.563 1292.8 139.255C1259.6 178.967 1214.85 208.947 1168.89 233.773C1120.88 259.717 1069.87 280.427 1017.72 297.469C957.238 317.221 895.173 332.039 833.072 346.302C770.971 360.566 709.268 376.651 646.684 388.632C522.229 412.454 394.974 423.051 272.353 455.43C224.73 467.998 177.748 483.876 135.446 508.645C93.1444 533.413 58.6974 565.215 27.8943 600.983C-44.2211 684.72 -84.1578 787.956 -147.9 876.962C-156.128 888.447 -164.755 899.654 -173.828 910.551C-174.408 911.243 -173.382 912.223 -172.803 911.531L-172.791 911.52Z" fill="white"/>
<path d="M-144.931 191.005C-128.409 189.507 -116.388 187.021 -104.983 184.634C-98.3739 183.249 -91.9073 181.84 -84.7656 180.524C-77.6239 179.207 -69.061 177.99 -60.7231 176.808C-21.7931 171.291 20.2754 166.369 63.3151 161.734C143.579 153.093 237.973 149.552 332.201 147.408C412.642 145.578 493.594 146.084 574.485 146.635C653.399 147.17 733.226 147.754 811.595 145.756C889.324 143.776 962.743 138.88 1021.84 130.333C1029.79 129.183 1037.42 127.98 1044.8 126.736C1045.44 126.629 1044.43 126.466 1043.79 126.573C1014.57 131.501 980.887 135.681 943.367 138.811C908.724 141.699 871.405 143.66 833.257 144.896C755.077 147.429 674.576 147.057 595.342 146.543C515.789 146.025 435.667 145.221 356.302 146.671C265.675 148.33 171.507 151.342 91.2542 158.66C70.1489 160.583 50.1924 162.845 30.3661 165.091C9.85301 167.414 -10.3167 169.823 -29.906 172.348C-48.5123 174.747 -68.1017 177.19 -84.1024 180.053C-97.9239 182.527 -109.045 185.361 -123.068 187.808C-129.736 188.971 -137.079 190.027 -145.654 190.806C-146.447 190.879 -145.737 191.076 -144.931 191.005Z" fill="white"/>
<path d="M385.784 864.229C411.991 815.59 424.627 773.748 442.225 729.59C459.685 685.781 481.723 637.804 526.116 582.468C553.055 548.887 585.531 513.693 618.848 479.589C652.133 445.518 687.483 411.715 723.57 378.269C760.554 343.992 798.254 309.952 836.001 276.02C874.218 241.663 913.061 207.532 949.967 172.587C984.762 139.643 1018.39 105.471 1044.43 72.5913C1066.35 44.9081 1081.11 19.7706 1094.87 -4.8842C1098.61 -11.5834 1102.32 -18.2667 1106.09 -24.9736C1106.32 -25.3915 1105.57 -25.112 1105.33 -24.686C1090.87 1.05762 1077.65 26.4817 1057.53 54.5232C1034.73 86.3017 1003.62 119.919 969.97 152.839C933.944 188.087 895.252 222.511 856.865 256.84C818.884 290.809 781.074 324.931 743.719 359.202C670.463 426.406 599.817 494.998 541.299 563.596C517.731 591.22 498.731 617.374 483.794 642.373C468.883 667.331 457.852 690.574 448.413 712.889C429.188 758.338 416.989 800.106 393.661 847.721C390.935 853.288 388.026 858.947 384.931 864.692C384.706 865.109 385.552 864.652 385.779 864.237L385.784 864.229Z" fill="white"/>
<path d="M207.595 405.755C241.226 376.811 262.782 347.87 288.703 319.065C314.421 290.489 344.756 260.383 393.87 233.401C423.673 217.025 458.067 201.595 492.77 187.395C527.439 173.21 563.568 160.084 600.143 147.552C637.626 134.707 675.573 122.348 713.523 110.095C751.947 97.6889 790.772 85.7217 828.391 72.3014C863.857 59.6497 898.814 45.5233 927.742 29.3518C952.099 15.7363 970.38 1.27069 987.787 -13.2041C992.516 -17.1375 997.215 -21.0717 1001.97 -24.9998C1002.26 -25.2444 1001.62 -25.323 1001.32 -25.0739C983.084 -9.99405 965.859 5.32945 942.739 19.972C916.537 36.5654 883.619 51.2692 849.015 64.3686C811.963 78.3955 773.165 90.6627 734.623 102.977C696.487 115.164 658.434 127.545 620.677 140.234C546.633 165.113 474.129 192.189 410.651 224.215C385.087 237.112 363.35 250.673 344.971 264.951C326.625 279.206 311.665 293.646 298.159 307.98C270.652 337.173 249.443 366.232 218.252 395.516C214.607 398.941 210.798 402.366 206.826 405.784C206.538 406.033 207.3 406.005 207.589 405.76L207.595 405.755Z" fill="white"/>
<path d="M-144.984 342.142C-113.372 321.421 -76.7993 316.33 -44.5639 312.638C-8.89185 308.558 26.4715 306.857 60.5831 310.061C99.8838 313.745 136.601 324.127 172.719 336.032C191.257 342.145 209.619 348.642 228.037 355.029C246.634 361.479 265.358 367.585 283.284 375.441C351.336 405.26 409.428 451.832 475.196 485.578C540.963 519.325 605.302 541.621 677.077 553.466C711.144 559.088 745.783 562.092 782.477 557.066C819.757 551.961 857.625 540.819 895.08 526.962C904.117 523.62 913.145 520.103 922.151 516.462C922.913 516.155 922.92 514.842 922.144 515.154C884.425 530.368 846.338 543.439 808.445 551.266C789.296 555.22 770.217 557.804 751.514 558.429C732.811 559.054 715.345 557.352 697.754 555.093C624.436 545.656 555.372 522.938 491.46 492.071C425.209 460.076 367.285 414.434 301.219 382.17C266.244 365.091 228.386 353.463 191.222 340.753C155.573 328.557 119.547 316.755 81.1927 311.145C46.5863 306.082 10.7802 306.301 -25.817 309.457C-58.2781 312.252 -92.5245 316.1 -125.533 330.392C-132.26 333.306 -138.884 336.76 -145.304 340.971C-146.037 341.455 -145.731 342.63 -144.992 342.151L-144.984 342.142Z" fill="white"/>
<path d="M-220.984 68.9014C-189.372 48.1809 -152.799 43.09 -120.564 39.3975C-84.8919 35.3174 -49.5285 33.6165 -15.4169 36.8209C23.8838 40.5052 60.6008 50.8868 96.7193 62.7919C115.257 68.9051 133.619 75.4013 152.037 81.7885C170.634 88.2391 189.358 94.3443 207.284 102.201C275.336 132.02 333.428 178.591 399.196 212.338C464.963 246.085 529.302 268.381 601.077 280.225C635.144 285.847 669.783 288.852 706.477 283.825C743.757 278.721 781.625 267.579 819.08 253.721C828.117 250.38 837.145 246.863 846.151 243.222C846.913 242.915 846.92 241.602 846.144 241.914C808.425 257.128 770.338 270.199 732.445 278.026C713.296 281.98 694.217 284.564 675.514 285.188C656.811 285.813 639.345 284.111 621.754 281.852C548.436 272.416 479.372 249.698 415.46 218.831C349.209 186.836 291.285 141.194 225.219 108.93C190.244 91.8503 152.386 80.2223 115.222 67.5129C79.5726 55.3165 43.5474 43.5151 5.19266 37.905C-29.4137 32.8413 -65.2198 33.0607 -101.817 36.2165C-134.278 39.0116 -168.525 42.8601 -201.533 57.1522C-208.26 60.0658 -214.884 63.5197 -221.304 67.7309C-222.037 68.2147 -221.731 69.3893 -220.992 68.9112L-220.984 68.9014Z" fill="white"/>
</g>
<defs>
<clipPath id="clip0_131_2728">
<rect width="1440" height="856" fill="white"/>
</clipPath>
</defs>
</svg>
