<svg width="1440" height="1024" viewBox="0 0 1440 1024" fill="none" xmlns="http://www.w3.org/2000/svg">
<g clip-path="url(#clip0_99_148)">
<rect width="1440" height="1024" fill="#111527"/>
<path d="M690.481 1176.45C662.027 1108.43 624.599 1040.51 568.111 991.668C538.644 966.188 504.21 947.704 469.665 930.152C433.036 911.545 396.091 894.076 358.226 878.123C284.08 846.875 208.17 817.842 141.524 771.904C85.8545 733.532 36.4636 686.199 -4.52686 632.45C-45.4163 578.841 -78.0034 518.952 -100.827 455.508C-103.525 448.004 -106.081 440.452 -108.516 432.856C-108.755 432.122 -107.579 431.884 -107.336 432.608C-86.2919 498.219 -55.0769 560.475 -14.8733 616.449C24.7777 671.647 73.0408 720.649 127.927 760.763C193.47 808.672 268.426 839.327 342.879 870.382C379.644 885.714 416.083 901.611 451.602 919.657C486.16 937.202 521.282 954.261 552.452 977.548C610.854 1021.18 650.895 1085.61 680.737 1151.05C684.49 1159.28 688.085 1167.57 691.569 1175.91C691.869 1176.62 690.793 1177.16 690.494 1176.44L690.481 1176.45Z" fill="white"/>
<path d="M689.805 1048.42C641.235 992.955 584.185 940.425 515.115 912.035C479.085 897.225 440.565 890.625 402.235 884.945C361.595 878.925 321.015 874.085 280.045 870.975C199.815 864.875 118.615 861.435 40.835 839.025C-24.135 820.305 -85.995 791.095 -141.925 753.135C-197.715 715.275 -247.625 668.825 -289.405 615.905C-294.345 609.645 -299.165 603.294 -303.885 596.864C-304.345 596.244 -303.305 595.645 -302.845 596.255C-262.065 651.795 -212.705 700.924 -156.815 741.244C-101.695 781.004 -40.375 812.155 24.405 832.775C101.765 857.405 182.575 862.685 263.035 868.505C302.765 871.375 342.365 874.885 381.775 880.725C420.115 886.395 458.835 891.424 495.785 903.615C565.015 926.454 623.435 974.845 672.505 1027.43C678.675 1034.04 684.715 1040.76 690.665 1047.56C691.175 1048.14 690.325 1048.99 689.815 1048.41L689.805 1048.42Z" fill="#FDCE82"/>
<path d="M706.654 -181.442C633.908 -169.447 559.184 -148.697 498.627 -105C467.036 -82.2065 441.107 -52.9659 416.059 -23.4013C389.504 7.94631 363.983 39.8655 339.726 73.0287C292.215 137.966 246.453 205.13 186.38 259.381C136.2 304.697 78.7492 341.836 16.9941 369.321C-44.6021 396.74 -110.393 414.632 -177.391 422.204C-185.316 423.098 -193.253 423.843 -201.205 424.46C-201.975 424.523 -201.936 423.324 -201.175 423.255C-132.479 417.914 -64.701 401.903 -0.962233 375.697C61.8946 349.85 120.708 314.193 172.402 270.041C234.14 217.318 281.259 151.456 328.653 86.1755C352.052 53.9391 375.927 22.1508 401.68 -8.24693C426.725 -37.8253 451.426 -68.0642 481.276 -93.0219C537.203 -139.783 609.132 -163.88 679.696 -177.819C688.567 -179.574 697.462 -181.159 706.378 -182.626C707.139 -182.753 707.413 -181.583 706.651 -181.456L706.654 -181.442Z" fill="#FDCE82"/>
<path d="M492.294 -30.6665C491.895 -23.9773 487.755 -18.4861 483.773 -13.4001C479.791 -8.31421 476.32 -3.59238 472.556 1.28214C464.063 12.288 455.225 23.0177 446.186 33.5772C428.673 54.0443 410.884 74.6053 391.656 93.4926C355.485 129.012 313.341 157.525 270.064 183.612C228.119 208.889 183.303 231.136 133.982 236.469C106.638 239.423 78.8887 236.727 51.4915 235.881C22.9668 235 -5.65186 234.918 -34.1942 234.947C-62.7365 234.977 -89.1059 236.398 -116.133 241.977C-142.802 247.486 -168.713 256.049 -194.266 265.346C-200.445 267.589 -206.605 269.88 -212.76 272.182C-213.183 272.34 -213.001 273.022 -212.572 272.863C-186.878 263.255 -161.049 253.841 -134.462 246.975C-106.836 239.84 -78.9164 236.451 -50.4152 235.828C-35.9267 235.511 -21.4382 235.687 -6.94977 235.864C7.5387 236.04 21.9802 235.94 36.4452 236.204C50.9101 236.469 65.7686 237.079 80.4273 237.631C94.1112 238.148 107.83 238.888 121.52 238.172C170.577 235.605 215.792 215.99 257.783 191.694C301.583 166.352 344.479 138.203 381.79 103.847C401.47 85.7228 419.194 65.5669 436.813 45.4757C446.133 34.8516 455.289 24.0807 464.151 13.0749C472.08 3.22604 480.09 -6.74033 487.414 -17.0532C490.321 -21.1466 492.694 -25.5688 492.999 -30.6606C493.028 -31.1129 492.324 -31.1129 492.294 -30.6606V-30.6665Z" fill="white"/>
<path d="M943.706 1137.55C944.105 1130.86 948.245 1125.37 952.227 1120.29C956.209 1115.2 959.68 1110.48 963.444 1105.6C971.937 1094.6 980.775 1083.87 989.814 1073.31C1007.33 1052.84 1025.12 1032.28 1044.34 1013.39C1080.52 977.875 1122.66 949.362 1165.94 923.274C1207.88 897.997 1252.7 875.751 1302.02 870.418C1329.36 867.464 1357.11 870.16 1384.51 871.005C1413.03 871.886 1441.65 871.969 1470.19 871.939C1498.74 871.91 1525.11 870.489 1552.13 864.909C1578.8 859.401 1604.71 850.838 1630.27 841.541C1636.44 839.298 1642.61 837.007 1648.76 834.705C1649.18 834.546 1649 833.865 1648.57 834.024C1622.88 843.632 1597.05 853.046 1570.46 859.912C1542.84 867.047 1514.92 870.436 1486.42 871.058C1471.93 871.375 1457.44 871.199 1442.95 871.023C1428.46 870.847 1414.02 870.947 1399.55 870.682C1385.09 870.418 1370.23 869.807 1355.57 869.255C1341.89 868.739 1328.17 867.999 1314.48 868.715C1265.42 871.281 1220.21 890.897 1178.22 915.193C1134.42 940.535 1091.52 968.684 1054.21 1003.04C1034.53 1021.16 1016.81 1041.32 999.187 1061.41C989.867 1072.04 980.711 1082.81 971.849 1093.81C963.92 1103.66 955.91 1113.63 948.586 1123.94C945.679 1128.03 943.306 1132.46 943.001 1137.55C942.972 1138 943.676 1138 943.706 1137.55V1137.55Z" fill="#FDCE82"/>
<path d="M879.202 1281.87C879.882 1270.48 886.932 1261.13 893.712 1252.47C900.492 1243.81 906.402 1235.77 912.812 1227.47C927.272 1208.73 942.322 1190.46 957.712 1172.48C987.532 1137.63 1017.82 1102.62 1050.56 1070.46C1112.15 1009.98 1183.91 961.43 1257.6 917.01C1329.02 873.97 1405.33 836.09 1489.31 827.01C1535.87 821.98 1583.12 826.57 1629.77 828.01C1678.34 829.51 1727.07 829.65 1775.67 829.6C1824.27 829.55 1869.17 827.13 1915.19 817.63C1960.6 808.25 2004.72 793.67 2048.23 777.84C2058.75 774.02 2069.24 770.12 2079.72 766.2C2080.44 765.93 2080.13 764.77 2079.4 765.04C2035.65 781.4 1991.67 797.43 1946.4 809.12C1899.36 821.27 1851.82 827.04 1803.29 828.1C1778.62 828.64 1753.95 828.34 1729.28 828.04C1704.61 827.74 1680.02 827.91 1655.39 827.46C1630.76 827.01 1605.46 825.97 1580.5 825.03C1557.2 824.15 1533.84 822.89 1510.53 824.11C1427 828.48 1350.01 861.88 1278.51 903.25C1203.93 946.4 1130.89 994.33 1067.36 1052.83C1033.85 1083.69 1003.67 1118.01 973.672 1152.22C957.802 1170.31 942.212 1188.65 927.122 1207.39C913.622 1224.16 899.982 1241.13 887.512 1258.69C882.562 1265.66 878.522 1273.19 878.002 1281.86C877.952 1282.63 879.152 1282.63 879.202 1281.86V1281.87Z" fill="#2A6041"/>
<path d="M150.67 865.34C153.801 865.34 156.34 862.801 156.34 859.67C156.34 856.539 153.801 854 150.67 854C147.539 854 145 856.539 145 859.67C145 862.801 147.539 865.34 150.67 865.34Z" fill="white"/>
<path d="M20.5 671C26.8513 671 32 665.851 32 659.5C32 653.149 26.8513 648 20.5 648C14.1487 648 9 653.149 9 659.5C9 665.851 14.1487 671 20.5 671Z" fill="white"/>
<path d="M420.67 911.34C423.801 911.34 426.34 908.801 426.34 905.67C426.34 902.539 423.801 900 420.67 900C417.539 900 415 902.539 415 905.67C415 908.801 417.539 911.34 420.67 911.34Z" fill="white"/>
<path d="M358.67 52.34C361.801 52.34 364.34 49.8014 364.34 46.67C364.34 43.5385 361.801 41 358.67 41C355.539 41 353 43.5385 353 46.67C353 49.8014 355.539 52.34 358.67 52.34Z" fill="white"/>
<path d="M1376.67 860.34C1379.8 860.34 1382.34 857.801 1382.34 854.67C1382.34 851.539 1379.8 849 1376.67 849C1373.54 849 1371 851.539 1371 854.67C1371 857.801 1373.54 860.34 1376.67 860.34Z" fill="white"/>
<path d="M1083.67 986.34C1088.18 986.34 1091.84 982.682 1091.84 978.17C1091.84 973.658 1088.18 970 1083.67 970C1079.16 970 1075.5 973.658 1075.5 978.17C1075.5 982.682 1079.16 986.34 1083.67 986.34Z" fill="white"/>
<path d="M775.105 -270.683C800.165 -222.593 833.345 -179.343 866.765 -136.863C883.185 -115.993 899.775 -95.2533 915.795 -74.0833C931.345 -53.5432 945.855 -32.2832 960.815 -11.3132C1019.48 70.9068 1085.34 152.507 1173.57 204.477C1262.17 256.667 1369.73 259.157 1469.7 260.337C1529.26 261.047 1588.82 260.787 1648.39 260.367C1706.21 259.967 1764.45 257.837 1822.17 261.977C1925.51 269.387 2025.28 298.937 2117.66 345.447C2129.55 351.437 2141.32 357.677 2152.97 364.127C2153.65 364.497 2153.04 365.537 2152.36 365.167C2059.49 313.767 1958.89 277.917 1853.1 266.017C1796.35 259.637 1739.21 260.987 1682.21 261.337C1621.2 261.717 1560.19 262.357 1499.19 261.837C1399.92 261.007 1294.11 262.487 1201.84 220.537C1156.57 199.947 1116.2 168.507 1080.51 134.217C1044.18 99.3167 1012.11 60.2368 982.065 19.8868C967.055 -0.263214 952.605 -20.8133 938.205 -41.4033C922.575 -63.7533 905.875 -85.3232 889.015 -106.753C855.925 -148.823 821.895 -190.433 793.585 -235.963C786.665 -247.093 780.135 -258.463 774.075 -270.093C773.715 -270.773 774.755 -271.383 775.115 -270.703L775.105 -270.683Z" fill="#2A6041"/>
<path d="M461.89 -0.703901C413.896 46.7344 351.103 77.0384 281.965 95.7434C215.586 113.701 145.477 122.277 76.9547 134.731C38.8169 141.653 1.1223 149.815 -35.1484 161.105C-36.3296 161.461 -35.2166 163.203 -34.0583 162.85C96.9084 122.105 247.943 124.605 370.13 65.9096C405.242 49.041 436.674 27.1906 463.389 0.786224C464.205 -0.0245743 462.729 -1.51804 461.89 -0.703901Z" fill="#7A94CB"/>
<path d="M1587.98 239.816C1539.4 184.421 1482.34 131.961 1413.26 103.61C1377.22 88.8195 1338.7 82.2284 1300.36 76.556C1259.71 70.5441 1219.13 65.7106 1178.15 62.6048C1097.9 56.513 1016.69 53.0776 938.897 30.6977C873.915 12.0029 812.044 -17.1678 756.104 -55.0768C700.304 -92.8859 650.385 -139.273 608.597 -192.122C603.657 -198.374 598.836 -204.715 594.115 -211.137C593.655 -211.756 594.695 -212.355 595.155 -211.746C635.942 -156.281 685.311 -107.217 741.211 -66.9508C796.341 -27.2443 857.672 3.86388 922.464 24.4561C999.837 49.053 1080.66 54.3259 1161.14 60.1381C1200.87 63.0042 1240.48 66.5096 1279.9 72.3417C1318.24 78.0041 1356.97 83.0273 1393.93 95.2009C1463.17 118.01 1521.6 166.335 1570.68 218.854C1576.85 225.456 1582.89 232.167 1588.84 238.957C1589.35 239.537 1588.5 240.385 1587.99 239.806L1587.98 239.816Z" fill="#FDCE82"/>
<path d="M899.805 1107.42C851.235 1051.95 794.185 999.425 725.115 971.035C689.085 956.225 650.565 949.625 612.235 943.945C571.595 937.925 531.015 933.085 490.045 929.975C409.815 923.875 328.615 920.435 250.835 898.025C185.865 879.305 124.005 850.095 68.075 812.135C12.285 774.275 -37.625 727.825 -79.405 674.905C-84.345 668.645 -89.165 662.294 -93.8849 655.864C-94.345 655.244 -93.3051 654.645 -92.845 655.255C-52.0651 710.795 -2.70502 759.924 53.185 800.244C108.305 840.004 169.625 871.155 234.405 891.775C311.765 916.405 392.575 921.685 473.035 927.505C512.765 930.375 552.365 933.885 591.775 939.725C630.115 945.395 668.835 950.424 705.785 962.615C775.015 985.454 833.435 1033.84 882.505 1086.43C888.675 1093.04 894.715 1099.76 900.665 1106.56C901.175 1107.14 900.325 1107.99 899.815 1107.41L899.805 1107.42Z" fill="#7A94CB"/>
<path d="M124 795.429C124.947 795.429 125.856 795.805 126.525 796.475C127.195 797.144 127.571 798.053 127.571 799C127.571 799.469 127.479 799.933 127.3 800.367C127.12 800.8 126.857 801.194 126.525 801.525C126.194 801.857 125.8 802.12 125.367 802.3C124.933 802.479 124.469 802.571 124 802.571C123.053 802.571 122.144 802.195 121.475 801.525C120.805 800.856 120.429 799.947 120.429 799C120.429 798.053 120.805 797.144 121.475 796.475C122.144 795.805 123.053 795.429 124 795.429ZM124 789C126.652 789 129.196 790.054 131.071 791.929C132.946 793.804 134 796.348 134 799C134 806.5 124 817.571 124 817.571C124 817.571 114 806.5 114 799C114 796.348 115.054 793.804 116.929 791.929C118.804 790.054 121.348 789 124 789ZM124 791.857C122.106 791.857 120.289 792.61 118.949 793.949C117.61 795.289 116.857 797.106 116.857 799C116.857 800.429 116.857 803.286 124 812.871C131.143 803.286 131.143 800.429 131.143 799C131.143 797.106 130.39 795.289 129.051 793.949C127.711 792.61 125.894 791.857 124 791.857Z" fill="#B9B6B9"/>
</g>
<defs>
<clipPath id="clip0_99_148">
<rect width="1440" height="1024" fill="white"/>
</clipPath>
</defs>
</svg>
