<svg width="302" height="416" viewBox="0 0 302 416" fill="none" xmlns="http://www.w3.org/2000/svg">
<g filter="url(#filter0_d_174_218)">
<path d="M265.561 -5.10468C280.718 136.107 -220.766 153.373 -389.733 401.072C-519.715 415.023 -528.307 250.694 -542.258 120.712C-556.209 -9.27002 -329.982 -193.702 -200 -207.653C-70.0178 -221.605 251.61 -135.087 265.561 -5.10468Z" fill="#111527"/>
</g>
<path d="M75.1576 46.0478C68.9104 42.2549 49.0352 42.5137 42.7522 45.6819C39.1021 53.8034 39.7179 64.7628 42.7522 73.7678C51.8197 76.9093 65.6261 76.1328 74.7917 73.7678C77.7815 64.9502 78.3794 55.3384 75.1576 46.0478Z" fill="white"/>
<path d="M49.7944 55.9183V59.6934H52.5789V60.809H49.7944V61.8264H53.4V62.942H48.6699V54.8116H53.4V55.9183H49.7944Z" fill="#181C1F"/>
<path d="M59.326 55.9272H57.3269V62.942H56.1935V55.9272H54.1943V54.8116H59.326V55.9272Z" fill="#181C1F"/>
<path d="M61.2357 54.8116H60.1201V62.942H61.2357V54.8116Z" fill="#181C1F"/>
<path d="M68.1784 56.6593C67.9196 56.4183 67.634 56.2309 67.3038 56.097C66.9289 55.9364 66.5362 55.865 66.1257 55.865C65.7152 55.865 65.3225 55.9364 64.9477 56.097C64.5907 56.2487 64.2605 56.4719 63.9838 56.7485C63.7071 57.0252 63.4929 57.3465 63.3323 57.7035C63.1806 58.0783 63.1003 58.471 63.1003 58.8726C63.1003 59.2742 63.1806 59.6758 63.3323 60.0506C63.484 60.4076 63.6982 60.7289 63.9838 61.0056C64.2605 61.2822 64.5907 61.5054 64.9477 61.6571C65.3314 61.8088 65.7152 61.8891 66.1257 61.8891C66.5362 61.8891 66.9289 61.8088 67.3038 61.6571C67.625 61.5143 67.9196 61.3269 68.1784 61.0948L68.928 61.8445C68.5711 62.1747 68.1605 62.4335 67.7143 62.6299C67.2056 62.8351 66.679 62.9511 66.1257 62.9511C65.5724 62.9511 65.0369 62.8441 64.5282 62.6299C64.0463 62.4246 63.609 62.1301 63.2252 61.7642C62.8504 61.3893 62.5559 60.952 62.3506 60.4701C62.1364 59.9614 62.0293 59.4348 62.0293 58.8815C62.0293 58.3282 62.1364 57.8016 62.3506 57.3019C62.5648 56.811 62.8504 56.3826 63.2252 56.0078C63.6 55.6329 64.0373 55.3384 64.5282 55.1421C65.0369 54.9279 65.5724 54.8208 66.1257 54.8208C66.679 54.8208 67.2145 54.9279 67.7143 55.1421C68.1695 55.3295 68.5711 55.5883 68.928 55.9275L68.1784 56.6682V56.6593Z" fill="#181C1F"/>
<path fill-rule="evenodd" clip-rule="evenodd" d="M40.62 33.9283C38.5405 32.6699 31.9274 32.7592 29.839 33.8034C28.6253 36.4986 28.8305 40.1399 29.839 43.1385C32.8555 44.1827 37.4517 43.9239 40.495 43.1385C41.4857 40.2113 41.6909 37.0162 40.62 33.9283Z" fill="white"/>
<path fill-rule="evenodd" clip-rule="evenodd" d="M87.0636 41.1484C85.8231 40.3898 81.8605 40.4433 80.6021 41.077C79.8793 42.7102 79.9953 44.9057 80.6021 46.7174C82.4139 47.351 85.1626 47.1904 86.9922 46.7174C87.5901 44.9503 87.7062 43.0136 87.0636 41.1573" fill="white"/>
<path fill-rule="evenodd" clip-rule="evenodd" d="M41.1816 75.4901C40.3694 74.9814 37.7724 75.0171 36.9513 75.4454C36.4783 76.5342 36.5586 77.9979 36.9513 79.2027C38.1383 79.6222 39.9411 79.5151 41.137 79.2027C41.5296 78.0247 41.61 76.7395 41.1816 75.499" fill="white"/>
<path fill-rule="evenodd" clip-rule="evenodd" d="M77.9074 71.3849C76.8096 70.6977 73.3023 70.7423 72.1956 71.3224C71.553 72.8039 71.6601 74.7941 72.1956 76.4363C73.7931 77.0074 76.2295 76.8646 77.8449 76.4363C78.3715 74.8298 78.4786 73.0806 77.9074 71.3849Z" fill="white"/>
<path d="M108.522 63.1202V59.1033H114.238H116.577V55.0933H104.505V59.1033V67.1372H104.526H108.522H116.577V63.1202H108.522Z" fill="#02AAA3"/>
<path d="M116.751 47.0593H104.505V51.0763H116.751V47.0593Z" fill="white"/>
<path d="M140.657 55.1003H136.661H128.606V59.1104H136.661V63.1273H130.946H128.606V67.1443H140.678V63.1273V55.1003H140.657Z" fill="#02AAA3"/>
<path d="M140.65 71.1613H128.606V75.1782H140.65V71.1613Z" fill="white"/>
<path d="M148.684 47.0663H120.579V71.1612H100.501V47.0593H96.4844V71.1612V75.0876V75.1781H124.596V71.1612V51.0833H144.716V75.1781H148.733V47.0663H148.684Z" fill="white"/>
<defs>
<filter id="filter0_d_174_218" x="-549.637" y="-209.126" width="822.297" height="624.556" filterUnits="userSpaceOnUse" color-interpolation-filters="sRGB">
<feFlood flood-opacity="0" result="BackgroundImageFix"/>
<feColorMatrix in="SourceAlpha" type="matrix" values="0 0 0 0 0 0 0 0 0 0 0 0 0 0 0 0 0 0 127 0" result="hardAlpha"/>
<feOffset dy="6.76301"/>
<feGaussianBlur stdDeviation="3.3815"/>
<feComposite in2="hardAlpha" operator="out"/>
<feColorMatrix type="matrix" values="0 0 0 0 0 0 0 0 0 0 0 0 0 0 0 0 0 0 0.25 0"/>
<feBlend mode="normal" in2="BackgroundImageFix" result="effect1_dropShadow_174_218"/>
<feBlend mode="normal" in="SourceGraphic" in2="effect1_dropShadow_174_218" result="shape"/>
</filter>
</defs>
</svg>
