<svg width="215" height="80" viewBox="0 0 215 80" fill="none" xmlns="http://www.w3.org/2000/svg">
<path d="M69.6452 19.6867C60.2192 13.9637 30.231 14.3543 20.7511 19.1346C15.2436 31.3884 16.1728 47.9244 20.7511 61.5113C34.4323 66.2512 55.2638 65.0797 69.0932 61.5113C73.6042 48.2071 74.5064 33.7045 69.6452 19.6867Z" fill="white"/>
<path d="M31.3754 34.5799V40.2759H35.5767V41.9591H31.3754V43.4942H36.8156V45.1774H29.6787V32.9102H36.8156V34.5799H31.3754Z" fill="#181C1F"/>
<path d="M45.7565 34.5934H42.7401V45.1774H41.03V34.5934H38.0137V32.9102H45.7565V34.5934Z" fill="#181C1F"/>
<path d="M48.6383 32.9102H46.9551V45.1774H48.6383V32.9102Z" fill="#181C1F"/>
<path d="M59.1148 35.6975C58.7243 35.334 58.2934 35.0512 57.7952 34.8492C57.2296 34.6068 56.6371 34.4991 56.0177 34.4991C55.3983 34.4991 54.8058 34.6068 54.2402 34.8492C53.7016 35.0781 53.2034 35.4147 52.7859 35.8322C52.3685 36.2496 52.0453 36.7344 51.8029 37.273C51.574 37.8386 51.4528 38.4311 51.4528 39.037C51.4528 39.643 51.574 40.2489 51.8029 40.8145C52.0318 41.3531 52.355 41.8379 52.7859 42.2553C53.2034 42.6728 53.7016 43.0094 54.2402 43.2383C54.8192 43.4673 55.3983 43.5885 56.0177 43.5885C56.6371 43.5885 57.2296 43.4673 57.7952 43.2383C58.2799 43.0229 58.7243 42.7401 59.1148 42.39L60.2459 43.5211C59.7073 44.0194 59.0879 44.4099 58.4146 44.7061C57.6471 45.0158 56.8526 45.1909 56.0177 45.1909C55.1828 45.1909 54.3749 45.0293 53.6073 44.7061C52.8802 44.3964 52.2204 43.952 51.6413 43.3999C51.0758 42.8344 50.6314 42.1746 50.3217 41.4474C49.9985 40.6799 49.8369 39.8854 49.8369 39.0505C49.8369 38.2156 49.9985 37.4211 50.3217 36.6671C50.6449 35.9264 51.0758 35.2801 51.6413 34.7145C52.2069 34.149 52.8667 33.7046 53.6073 33.4083C54.3749 33.0852 55.1828 32.9236 56.0177 32.9236C56.8526 32.9236 57.6605 33.0852 58.4146 33.4083C59.1014 33.6911 59.7073 34.0816 60.2459 34.5933L59.1148 35.711V35.6975Z" fill="#181C1F"/>
<path fill-rule="evenodd" clip-rule="evenodd" d="M17.5335 1.40118C14.396 -0.497493 4.41786 -0.362835 1.26687 1.21266C-0.564471 5.27931 -0.254759 10.7733 1.26687 15.2978C5.81829 16.8733 12.7532 16.4828 17.345 15.2978C18.8397 10.8811 19.1494 6.06033 17.5335 1.40118Z" fill="white"/>
<path fill-rule="evenodd" clip-rule="evenodd" d="M87.6085 12.2946C85.7368 11.1501 79.758 11.2309 77.8593 12.1869C76.7686 14.6511 76.9436 17.9637 77.8593 20.6973C80.5928 21.6533 84.7403 21.411 87.5008 20.6973C88.403 18.0311 88.578 15.109 87.6085 12.3081" fill="white"/>
<path fill-rule="evenodd" clip-rule="evenodd" d="M18.3805 64.1103C17.1551 63.3427 13.2366 63.3966 11.9977 64.0429C11.284 65.6858 11.4052 67.8942 11.9977 69.712C13.7886 70.3449 16.5087 70.1833 18.3131 69.712C18.9056 67.9345 19.0268 65.9955 18.3805 64.1237" fill="white"/>
<path fill-rule="evenodd" clip-rule="evenodd" d="M73.7919 57.9162C72.1356 56.8793 66.8435 56.9467 65.1738 57.8219C64.2043 60.0572 64.3658 63.0601 65.1738 65.5378C67.5842 66.3996 71.2603 66.1842 73.6976 65.5378C74.4921 63.114 74.6537 60.4747 73.7919 57.9162Z" fill="white"/>
<path d="M119.985 45.4467V39.3857H128.609H132.138V33.3353H113.924V39.3857V51.5076H113.955H119.985H132.138V45.4467H119.985Z" fill="#02AAA3"/>
<path d="M132.401 21.2131H113.924V27.2741H132.401V21.2131Z" fill="white"/>
<path d="M168.472 33.3456H162.442H150.289V39.396H162.442V45.4569H153.818H150.289V51.5178H168.503V45.4569V33.3456H168.472Z" fill="#02AAA3"/>
<path d="M168.461 57.5787H150.289V63.6397H168.461V57.5787Z" fill="white"/>
<path d="M180.584 21.2236H138.178V57.5786H107.884V21.2131H101.823V57.5786V63.503V63.6396H144.239V57.5786V27.2846H174.596V63.6396H180.657V21.2236H180.584Z" fill="white"/>
</svg>
