<svg width="88" height="87" viewBox="0 0 88 87" fill="none" xmlns="http://www.w3.org/2000/svg">
<g filter="url(#filter0_d_144_221)">
<circle cx="44" cy="37" r="37" fill="#D3C9B7"/>
</g>
<path d="M46.0508 26.7573L47.4865 26.1676C48.6524 25.7051 50.1594 25.233 51.938 25.5317C55.5822 26.1445 58.0951 28.112 59.5924 30.7213C60.1705 31.7272 59.7042 33.0531 58.625 33.4751C57.7005 33.8368 56.9102 34.4751 56.3622 35.3028C55.8142 36.1306 55.5351 37.1074 55.5631 38.0997C55.5912 39.092 55.925 40.0515 56.5189 40.847C57.1128 41.6424 57.9379 42.2351 58.8813 42.544C59.8796 42.8716 60.4423 43.9796 60.1147 44.9779C59.2629 47.564 58.0373 49.9517 56.5862 51.8788C55.1524 53.7827 53.4026 55.3629 51.4544 56.1357C50.1594 56.6483 48.7757 56.444 47.4499 56.1106L46.6636 55.8986L45.5363 55.5845L44.9215 55.4323C44.6199 55.3571 44.3111 55.3138 44.0004 55.3032C43.7499 55.3032 43.4512 55.3494 43.0792 55.4323L42.4626 55.5865L40.946 56.0066C39.5045 56.3978 37.9706 56.7003 36.5464 56.1357C34.0933 55.1644 31.9291 52.8982 30.2931 50.2253C28.524 47.2809 27.3555 44.0152 26.8551 40.6169C26.4177 37.6222 26.6547 34.2594 28.0403 31.4151C29.4663 28.484 32.0795 26.2023 36.0627 25.5317C37.6815 25.26 39.0728 25.6242 40.1867 26.0423L40.8246 26.2929L41.95 26.7573C42.7208 27.0598 43.3278 27.2371 44.0004 27.2371C44.671 27.2371 45.28 27.0598 46.0508 26.7573ZM40.5124 30.3359L39.8417 30.0603C38.4331 29.4706 37.6487 29.1739 36.7006 29.3319C34.0181 29.7847 32.4206 31.2243 31.5052 33.1032C30.5494 35.0649 30.3104 37.5971 30.6688 40.0599C31.1082 43.0623 32.1893 45.9376 33.5807 48.2154C35.0028 50.5375 36.6081 52.0156 37.9648 52.5513C38.4273 52.7344 39.0921 52.5898 39.7088 52.401L40.5625 52.1196L40.7976 52.0464L41.632 51.8152C42.3759 51.6224 43.2141 51.449 44.0004 51.449C44.7847 51.449 45.6249 51.6224 46.3688 51.8152L47.2032 52.0464L47.4383 52.1196L48.292 52.401C48.9087 52.5898 49.5735 52.7344 50.036 52.5513C51.0901 52.1351 52.3158 51.1407 53.5048 49.5605C54.3912 48.3849 55.2006 46.9551 55.8616 45.3652C54.5931 44.5907 53.545 43.5032 52.8177 42.207C52.0905 40.9109 51.7086 39.4495 51.7087 37.9633C51.7087 35.1748 53.023 32.6985 55.0619 31.1125C54.1503 30.2453 52.9286 29.6075 51.3002 29.3319C50.4465 29.1893 49.7258 29.4147 48.5637 29.8927L48.159 30.0603C47.1165 30.4978 45.7001 31.0913 44.0004 31.0913C42.6418 31.0913 41.4624 30.7117 40.5124 30.3359ZM43.5533 19.2089C45.4341 17.3261 48.3228 17.1643 49.0031 17.8465C49.6853 18.5267 49.5234 21.4154 47.6407 23.2963C45.7598 25.1771 42.8711 25.339 42.1909 24.6587C41.5087 23.9784 41.6706 21.0897 43.5533 19.2089Z" fill="#111527"/>
<defs>
<filter id="filter0_d_144_221" x="0.833333" y="0" width="86.3333" height="86.3333" filterUnits="userSpaceOnUse" color-interpolation-filters="sRGB">
<feFlood flood-opacity="0" result="BackgroundImageFix"/>
<feColorMatrix in="SourceAlpha" type="matrix" values="0 0 0 0 0 0 0 0 0 0 0 0 0 0 0 0 0 0 127 0" result="hardAlpha"/>
<feOffset dy="6.16667"/>
<feGaussianBlur stdDeviation="3.08333"/>
<feComposite in2="hardAlpha" operator="out"/>
<feColorMatrix type="matrix" values="0 0 0 0 0 0 0 0 0 0 0 0 0 0 0 0 0 0 0.25 0"/>
<feBlend mode="normal" in2="BackgroundImageFix" result="effect1_dropShadow_144_221"/>
<feBlend mode="normal" in="SourceGraphic" in2="effect1_dropShadow_144_221" result="shape"/>
</filter>
</defs>
</svg>
