<svg width="41" height="41" viewBox="0 0 41 41" fill="none" xmlns="http://www.w3.org/2000/svg">
<path d="M7.41667 34.3333C6.47708 34.3333 5.67303 33.9991 5.0045 33.3305C4.33597 32.662 4.00114 31.8574 4 30.9167V10.4167C4 9.47708 4.33483 8.67303 5.0045 8.0045C5.67417 7.33597 6.47822 7.00114 7.41667 7H34.75C35.6896 7 36.4942 7.33483 37.1639 8.0045C37.8335 8.67417 38.1678 9.47822 38.1667 10.4167V30.9167C38.1667 31.8563 37.8324 32.6609 37.1639 33.3305C36.4953 34.0002 35.6907 34.3345 34.75 34.3333H7.41667ZM21.0833 22.375L7.41667 13.8333V30.9167H34.75V13.8333L21.0833 22.375ZM21.0833 18.9583L34.75 10.4167H7.41667L21.0833 18.9583ZM7.41667 13.8333V10.4167V30.9167V13.8333Z" fill="#DED9D9" fill-opacity="0.65"/>
</svg>
